<svg width="21" height="20" viewBox="0 0 21 20" fill="none" xmlns="http://www.w3.org/2000/svg">
<path d="M19.5 0H7.5C7.23478 0 6.98043 0.105357 6.79289 0.292893C6.60536 0.48043 6.5 0.734784 6.5 1V5H4.5C4.23478 5 3.98043 5.10536 3.79289 5.29289C3.60536 5.48043 3.5 5.73478 3.5 6V10H1.5C1.23478 10 0.98043 10.1054 0.792893 10.2929C0.605357 10.4804 0.5 10.7348 0.5 11V19C0.5 19.2652 0.605357 19.5196 0.792893 19.7071C0.98043 19.8946 1.23478 20 1.5 20H9.5C9.76522 20 10.0196 19.8946 10.2071 19.7071C10.3946 19.5196 10.5 19.2652 10.5 19V17H14.5C14.7652 17 15.0196 16.8946 15.2071 16.7071C15.3946 16.5196 15.5 16.2652 15.5 16V14H19.5C19.7652 14 20.0196 13.8946 20.2071 13.7071C20.3946 13.5196 20.5 13.2652 20.5 13V1C20.5 0.734784 20.3946 0.48043 20.2071 0.292893C20.0196 0.105357 19.7652 0 19.5 0ZM8.5 18H2.5V12H8.5V18ZM13.5 15H10.5V11C10.5 10.7348 10.3946 10.4804 10.2071 10.2929C10.0196 10.1054 9.76522 10 9.5 10H5.5V7H13.5V15ZM18.5 12H15.5V6C15.5 5.73478 15.3946 5.48043 15.2071 5.29289C15.0196 5.10536 14.7652 5 14.5 5H8.5V2H18.5V12Z" fill="#2C2C2C"/>
</svg>
