<svg width="958" height="974" viewBox="0 0 958 974" fill="none" xmlns="http://www.w3.org/2000/svg">
<g opacity="0.05">
<path d="M667.678 312.253C598.964 310.535 533.112 331.733 479.285 372.985C428.895 334.598 366.479 311.681 298.909 311.681C133.994 311.681 0 446.322 0 610.756V974H52.1087V610.756C52.1087 474.969 162.625 363.818 298.909 363.818C351.018 363.818 399.691 380.433 439.774 407.935C388.811 464.083 360.752 535.127 360.752 610.756V974H597.246V610.756C597.246 532.836 567.469 461.791 518.224 408.508C561.17 378.142 612.134 362.672 665.96 364.391C798.236 367.829 905.889 481.271 905.889 617.058V974H957.998V617.058C958.571 453.197 828.013 316.264 667.678 312.253ZM545.71 610.756V921.862H413.434V610.756C413.434 547.732 436.911 488.719 479.285 442.884C520.514 487 545.71 546.013 545.71 610.756Z" fill="#5400FF"/>
<path d="M659.662 242.927C726.659 242.927 781.058 188.497 781.058 121.463C781.058 54.4294 726.659 0 659.662 0C592.665 0 538.266 54.4294 538.266 121.463C538.838 188.497 593.237 242.927 659.662 242.927ZM659.662 52.7106C697.455 52.7106 728.376 83.6494 728.376 121.463C728.376 159.278 697.455 190.216 659.662 190.216C621.869 190.216 590.947 159.278 590.947 121.463C590.947 83.6494 621.869 52.7106 659.662 52.7106Z" fill="#5400FF"/>
<path d="M298.336 242.927C365.333 242.927 419.732 188.498 419.732 121.464C419.159 55.0028 364.76 0.573486 298.336 0.573486C231.339 0.573486 176.94 55.0029 176.94 122.037C176.94 188.498 231.339 242.927 298.336 242.927ZM298.336 52.7111C336.129 52.7111 367.051 83.6499 367.051 121.464C367.051 159.278 336.129 190.217 298.336 190.217C260.543 190.217 229.621 159.278 229.621 121.464C229.049 83.6499 259.97 52.7111 298.336 52.7111Z" fill="#5400FF"/>
</g>
</svg>
